<svg width="25" height="25" viewBox="0 0 25 25" fill="none" xmlns="http://www.w3.org/2000/svg">
<path d="M11.625 4.5H4.625C4.09457 4.5 3.58586 4.71071 3.21079 5.08579C2.83571 5.46086 2.625 5.96957 2.625 6.5V20.5C2.625 21.0304 2.83571 21.5391 3.21079 21.9142C3.58586 22.2893 4.09457 22.5 4.625 22.5H18.625C19.1554 22.5 19.6641 22.2893 20.0392 21.9142C20.4143 21.5391 20.625 21.0304 20.625 20.5V13.5" stroke="#E9723D" stroke-width="2" stroke-linecap="round" stroke-linejoin="round"/>
<path d="M19.125 3.00001C19.5228 2.60219 20.0624 2.37869 20.625 2.37869C21.1876 2.37869 21.7272 2.60219 22.125 3.00001C22.5228 3.39784 22.7463 3.9374 22.7463 4.50001C22.7463 5.06262 22.5228 5.60219 22.125 6.00001L12.625 15.5L8.625 16.5L9.625 12.5L19.125 3.00001Z" stroke="#E9723D" stroke-width="2" stroke-linecap="round" stroke-linejoin="round"/>
</svg>
