<svg width="25" height="25" viewBox="0 0 25 25" fill="none" xmlns="http://www.w3.org/2000/svg">
<path d="M3.625 6.5H5.625H21.625" stroke="#A30D11" stroke-width="2" stroke-linecap="round" stroke-linejoin="round"/>
<path d="M8.625 6.5V4.5C8.625 3.96957 8.83571 3.46086 9.21079 3.08579C9.58586 2.71071 10.0946 2.5 10.625 2.5H14.625C15.1554 2.5 15.6641 2.71071 16.0392 3.08579C16.4143 3.46086 16.625 3.96957 16.625 4.5V6.5M19.625 6.5V20.5C19.625 21.0304 19.4143 21.5391 19.0392 21.9142C18.6641 22.2893 18.1554 22.5 17.625 22.5H7.625C7.09457 22.5 6.58586 22.2893 6.21079 21.9142C5.83571 21.5391 5.625 21.0304 5.625 20.5V6.5H19.625Z" stroke="#A30D11" stroke-width="2" stroke-linecap="round" stroke-linejoin="round"/>
<path d="M10.625 11.5V17.5" stroke="#A30D11" stroke-width="2" stroke-linecap="round" stroke-linejoin="round"/>
<path d="M14.625 11.5V17.5" stroke="#A30D11" stroke-width="2" stroke-linecap="round" stroke-linejoin="round"/>
</svg>
